# This file is brought to you by Roblox Corporation
# Generated by Roblox Studio

mtllib BiggerHead.mtl

g Handle1

v 0.0956699 19.1883 21.3053 
v 0.00950962 19.1883 20.7237 
v -0.165983 19.1883 20.7788 
v -0.315863 19.1883 20.8854 
v -0.425459 19.1883 21.0332 
v -0.484043 19.1883 21.2075 
v -0.485881 19.1883 21.3914 
v -0.430794 19.1883 21.5669 
v -0.324172 19.1883 21.7168 
v -0.176452 19.1883 21.8264 
v -0.00209632 19.1883 21.885 
v 0.18183 19.1883 21.8868 
v 0.0956699 19.1883 21.3053 
v 0.18183 19.1883 21.8868 
v 0.357322 19.1883 21.8317 
v 0.507202 19.1883 21.7251 
v 0.616799 19.1883 21.5774 
v 0.675383 19.1883 21.403 
v 0.677221 19.1883 21.2191 
v 0.622133 19.1883 21.0436 
v 0.515511 19.1883 20.8937 
v 0.367792 19.1883 20.7842 
v 0.193436 19.1883 20.7256 
v 0.00950962 19.1883 20.7237 
v -0.251428 19.1579 20.6069 
v -0.018627 19.1579 20.5338 
v -0.450252 19.1579 20.7483 
v -0.595635 19.1579 20.9443 
v -0.673355 19.1579 21.1756 
v -0.675789 19.1579 21.4196 
v -0.602716 19.1579 21.6524 
v -0.461272 19.1579 21.8512 
v -0.265316 19.1579 21.9966 
v -0.0340223 19.1579 22.0743 
v 0.209966 19.1579 22.0767 
v 0.442768 19.1579 22.0037 
v 0.209966 19.1579 22.0767 
v 0.641591 19.1579 21.8622 
v 0.786975 19.1579 21.6663 
v 0.864695 19.1579 21.435 
v 0.867135 19.1579 21.191 
v 0.794056 19.1579 20.9582 
v 0.652611 19.1579 20.7594 
v 0.456656 19.1579 20.614 
v 0.225362 19.1579 20.5363 
v -0.018627 19.1579 20.5338 
v -0.328508 19.0697 20.4518 
v -0.0440091 19.0697 20.3625 
v -0.571486 19.0697 20.6247 
v -0.74916 19.0697 20.8641 
v -0.844132 19.0697 21.1468 
v -0.847115 19.0697 21.445 
v -0.757806 19.0697 21.7295 
v -0.584957 19.0697 21.9724 
v -0.345481 19.0697 22.1501 
v -0.0628237 19.0697 22.2451 
v 0.235348 19.0697 22.2481 
v 0.519848 19.0697 22.1588 
v 0.235348 19.0697 22.2481 
v 0.762826 19.0697 21.9859 
v 0.940499 19.0697 21.7464 
v 1.03547 19.0697 21.4638 
v 1.03845 19.0697 21.1656 
v 0.949145 19.0697 20.8811 
v 0.776297 19.0697 20.6381 
v 0.536821 19.0697 20.4605 
v 0.254164 19.0697 20.3655 
v -0.0440091 19.0697 20.3625 
v -0.38968 18.9322 20.3287 
v -0.064152 18.9322 20.2265 
v -0.6677 18.9322 20.5265 
v -0.870991 18.9322 20.8005 
v -0.979667 18.9322 21.1239 
v -0.983073 18.9322 21.4651 
v -0.880892 18.9322 21.7906 
v -0.683109 18.9322 22.0687 
v -0.409102 18.9322 22.2719 
v -0.0856807 18.9322 22.3806 
v 0.255492 18.9322 22.384 
v 0.58102 18.9322 22.2818 
v 0.255492 18.9322 22.384 
v 0.859039 18.9322 22.0841 
v 1.06233 18.9322 21.8101 
v 1.17101 18.9322 21.4866 
v 1.17441 18.9322 21.1455 
v 1.07223 18.9322 20.8199 
v 0.874449 18.9322 20.5419 
v 0.600441 18.9322 20.3386 
v 0.27702 18.9322 20.2299 
v -0.064152 18.9322 20.2265 
v -0.428955 18.759 20.2497 
v -0.0770853 18.759 20.1392 
v -0.729473 18.759 20.4635 
v -0.949216 18.759 20.7597 
v -1.06668 18.759 21.1093 
v -1.07037 18.759 21.478 
v -0.959911 18.759 21.8299 
v -0.74613 18.759 22.1304 
v -0.449949 18.759 22.3502 
v -0.100355 18.759 22.4676 
v 0.268425 18.759 22.4713 
v 0.620295 18.759 22.3609 
v 0.268425 18.759 22.4713 
v 0.920812 18.759 22.1471 
v 1.14056 18.759 21.8509 
v 1.25802 18.759 21.5013 
v 1.26171 18.759 21.1325 
v 1.15125 18.759 20.7807 
v 0.93747 18.759 20.4801 
v 0.641289 18.759 20.2604 
v 0.291695 18.759 20.1429 
v -0.0770853 18.759 20.1392 
v -0.442488 18.5671 20.2225 
v -0.0815418 18.5671 20.1092 
v -0.750759 18.5671 20.4418 
v -0.97617 18.5671 20.7456 
v -1.09666 18.5671 21.1042 
v -1.10045 18.5671 21.4825 
v -0.987142 18.5671 21.8434 
v -0.767846 18.5671 22.1517 
v -0.464019 18.5671 22.3771 
v -0.105412 18.5671 22.4976 
v 0.272881 18.5671 22.5014 
v 0.633828 18.5671 22.3881 
v 0.272881 18.5671 22.5014 
v 0.942099 18.5671 22.1688 
v 1.16751 18.5671 21.865 
v 1.288 18.5671 21.5064 
v 1.29179 18.5671 21.1281 
v 1.17848 18.5671 20.7671 
v 0.959185 18.5671 20.4589 
v 0.655359 18.5671 20.2334 
v 0.296752 18.5671 20.1129 
v -0.0815418 18.5671 20.1092 
v -0.442488 17.3913 20.2225 
v -0.0815418 17.3913 20.1092 
v -0.750753 17.3913 20.4418 
v -0.97617 17.3913 20.7456 
v -1.09666 17.3913 21.1042 
v -1.10045 17.3913 21.4825 
v -0.987142 17.3913 21.8434 
v -0.767846 17.3913 22.1517 
v -0.464019 17.3913 22.3771 
v -0.105412 17.3913 22.4976 
v 0.272881 17.3913 22.5014 
v 0.633828 17.3913 22.3881 
v 0.272881 17.3913 22.5014 
v 0.942099 17.3913 22.1688 
v 1.16751 17.3913 21.865 
v 1.288 17.3913 21.5064 
v 1.29179 17.3913 21.1281 
v 1.17848 17.3913 20.7671 
v 0.959185 17.3913 20.4589 
v 0.655359 17.3913 20.2334 
v 0.296752 17.3913 20.1129 
v -0.0815418 17.3913 20.1092 
v -0.428955 17.1993 20.2497 
v -0.0770853 17.1993 20.1392 
v -0.729473 17.1993 20.4635 
v -0.949216 17.1993 20.7597 
v -1.06668 17.1993 21.1093 
v -1.07037 17.1993 21.478 
v -0.959911 17.1993 21.8299 
v -0.74613 17.1993 22.1304 
v -0.449949 17.1993 22.3502 
v -0.100355 17.1993 22.4676 
v 0.268425 17.1993 22.4713 
v 0.620295 17.1993 22.3609 
v 0.268425 17.1993 22.4713 
v 0.920812 17.1993 22.1471 
v 1.14056 17.1993 21.8509 
v 1.25802 17.1993 21.5013 
v 1.26171 17.1993 21.1325 
v 1.15125 17.1993 20.7807 
v 0.93747 17.1993 20.4801 
v 0.641289 17.1993 20.2604 
v 0.291695 17.1993 20.1429 
v -0.0770853 17.1993 20.1392 
v -0.38968 17.0261 20.3287 
v -0.064152 17.0261 20.2265 
v -0.6677 17.0261 20.5265 
v -0.870991 17.0261 20.8005 
v -0.979667 17.0261 21.1239 
v -0.983073 17.0261 21.4651 
v -0.880886 17.0261 21.7906 
v -0.683109 17.0261 22.0687 
v -0.409102 17.0261 22.2719 
v -0.0856807 17.0261 22.3806 
v 0.255492 17.0261 22.384 
v 0.58102 17.0261 22.2818 
v 0.255492 17.0261 22.384 
v 0.859039 17.0261 22.0841 
v 1.06233 17.0261 21.8101 
v 1.17101 17.0261 21.4866 
v 1.17441 17.0261 21.1455 
v 1.07223 17.0261 20.8199 
v 0.874449 17.0261 20.5419 
v 0.600441 17.0261 20.3386 
v 0.27702 17.0261 20.2299 
v -0.064152 17.0261 20.2265 
v -0.328508 16.8886 20.4518 
v -0.0440091 16.8886 20.3625 
v -0.571486 16.8886 20.6247 
v -0.74916 16.8886 20.8641 
v -0.844132 16.8886 21.1468 
v -0.847115 16.8886 21.445 
v -0.757806 16.8886 21.7295 
v -0.584957 16.8886 21.9724 
v -0.345481 16.8886 22.1501 
v -0.0628237 16.8886 22.2451 
v 0.235348 16.8886 22.2481 
v 0.519848 16.8886 22.1588 
v 0.235348 16.8886 22.2481 
v 0.762827 16.8886 21.9859 
v 0.940499 16.8886 21.7464 
v 1.03547 16.8886 21.4638 
v 1.03845 16.8886 21.1656 
v 0.949145 16.8886 20.8811 
v 0.776297 16.8886 20.6381 
v 0.536821 16.8886 20.4605 
v 0.254164 16.8886 20.3655 
v -0.0440091 16.8886 20.3625 
v -0.251428 16.8004 20.6069 
v -0.018627 16.8004 20.5338 
v -0.450252 16.8004 20.7483 
v -0.595635 16.8004 20.9443 
v -0.673355 16.8004 21.1756 
v -0.675789 16.8004 21.4196 
v -0.602716 16.8004 21.6524 
v -0.461272 16.8004 21.8512 
v -0.265316 16.8004 21.9966 
v -0.0340223 16.8004 22.0743 
v 0.209966 16.8004 22.0767 
v 0.442768 16.8004 22.0037 
v 0.209966 16.8004 22.0767 
v 0.641591 16.8004 21.8622 
v 0.786975 16.8004 21.6663 
v 0.864695 16.8004 21.435 
v 0.867135 16.8004 21.191 
v 0.794056 16.8004 20.9582 
v 0.652611 16.8004 20.7594 
v 0.456656 16.8004 20.614 
v 0.225362 16.8004 20.5363 
v -0.018627 16.8004 20.5338 
v -0.165983 16.77 20.7788 
v 0.00950962 16.77 20.7237 
v -0.315863 16.77 20.8854 
v -0.425459 16.77 21.0332 
v -0.484043 16.77 21.2075 
v -0.485881 16.77 21.3914 
v -0.430794 16.77 21.5669 
v -0.324172 16.77 21.7168 
v -0.176452 16.77 21.8264 
v -0.00209632 16.77 21.885 
v 0.18183 16.77 21.8868 
v 0.357322 16.77 21.8317 
v 0.18183 16.77 21.8868 
v 0.507202 16.77 21.7251 
v 0.616799 16.77 21.5774 
v 0.675383 16.77 21.403 
v 0.677221 16.77 21.2191 
v 0.622133 16.77 21.0436 
v 0.515511 16.77 20.8937 
v 0.367792 16.77 20.7842 
v 0.193436 16.77 20.7256 
v 0.00950962 16.77 20.7237 
v 0.0956699 16.77 21.3053 
v 0.0956699 16.77 21.3053 

vn 0 1 0 
vn -0.015748 0.992126 -0.0944882 
vn -0.0472441 0.992126 -0.0787402 
vn -0.0708661 0.992126 -0.0629921 
vn -0.0866142 0.992126 -0.0393701 
vn -0.0944882 0.992126 -0.00787402 
vn -0.0944882 0.992126 0.015748 
vn -0.0787402 0.992126 0.0472441 
vn -0.0629921 0.992126 0.0708661 
vn -0.0393701 0.992126 0.0866142 
vn -0.00787402 0.992126 0.0944882 
vn 0.015748 0.992126 0.0944882 
vn 0 1 0 
vn 0.015748 0.992126 0.0944882 
vn 0.0472441 0.992126 0.0787402 
vn 0.0708661 0.992126 0.0629921 
vn 0.0866142 0.992126 0.0393701 
vn 0.0944882 0.992126 0.00787402 
vn 0.0944882 0.992126 -0.015748 
vn 0.0787402 0.992126 -0.0472441 
vn 0.0629921 0.992126 -0.0708661 
vn 0.0393701 0.992126 -0.0866142 
vn 0.00787402 0.992126 -0.0944882 
vn -0.015748 0.992126 -0.0944882 
vn -0.141732 0.952756 -0.275591 
vn -0.0551181 0.952756 -0.307087 
vn -0.220472 0.952756 -0.212598 
vn -0.275591 0.952756 -0.133858 
vn -0.307087 0.952756 -0.0393701 
vn -0.307087 0.952756 0.0551181 
vn -0.275591 0.952756 0.141732 
vn -0.212598 0.952756 0.220472 
vn -0.133858 0.952756 0.275591 
vn -0.0472441 0.952756 0.307087 
vn 0.0551181 0.952756 0.307087 
vn 0.141732 0.952756 0.275591 
vn 0.0551181 0.952756 0.307087 
vn 0.220472 0.952756 0.212598 
vn 0.275591 0.952756 0.133858 
vn 0.307087 0.952756 0.0472441 
vn 0.307087 0.952756 -0.0551181 
vn 0.275591 0.952756 -0.141732 
vn 0.212598 0.952756 -0.220472 
vn 0.133858 0.952756 -0.275591 
vn 0.0472441 0.952756 -0.307087 
vn -0.0551181 0.952756 -0.307087 
vn -0.267717 0.811024 -0.519685 
vn -0.0944882 0.811024 -0.582677 
vn -0.417323 0.811024 -0.417323 
vn -0.527559 0.811024 -0.267717 
vn -0.582677 0.811024 -0.0944882 
vn -0.582677 0.811024 0.0944882 
vn -0.519685 0.811024 0.267717 
vn -0.417323 0.811024 0.417323 
vn -0.267717 0.811024 0.527559 
vn -0.0944882 0.811024 0.582677 
vn 0.0944882 0.811024 0.582677 
vn 0.267717 0.811024 0.519685 
vn 0.0944882 0.811024 0.582677 
vn 0.417323 0.811024 0.417323 
vn 0.527559 0.811024 0.267717 
vn 0.582677 0.811024 0.0944882 
vn 0.582677 0.811024 -0.0944882 
vn 0.519685 0.811024 -0.267717 
vn 0.417323 0.811024 -0.417323 
vn 0.267717 0.811024 -0.527559 
vn 0.0944882 0.811024 -0.582677 
vn -0.0944882 0.811024 -0.582677 
vn -0.362205 0.590551 -0.724409 
vn -0.125984 0.590551 -0.80315 
vn -0.566929 0.590551 -0.574803 
vn -0.716535 0.590551 -0.370079 
vn -0.795276 0.590551 -0.125984 
vn -0.80315 0.590551 0.125984 
vn -0.724409 0.590551 0.362205 
vn -0.574803 0.590551 0.566929 
vn -0.370079 0.590551 0.716535 
vn -0.125984 0.590551 0.795276 
vn 0.125984 0.590551 0.80315 
vn 0.362205 0.590551 0.724409 
vn 0.125984 0.590551 0.80315 
vn 0.566929 0.590551 0.574803 
vn 0.716535 0.590551 0.370079 
vn 0.795276 0.590551 0.133858 
vn 0.80315 0.590551 -0.125984 
vn 0.724409 0.590551 -0.362205 
vn 0.574803 0.590551 -0.566929 
vn 0.370079 0.590551 -0.716535 
vn 0.125984 0.590551 -0.795276 
vn -0.125984 0.590551 -0.80315 
vn -0.425197 0.307087 -0.850394 
vn -0.141732 0.307087 -0.937008 
vn -0.669291 0.307087 -0.677165 
vn -0.84252 0.307087 -0.440945 
vn -0.937008 0.307087 -0.15748 
vn -0.937008 0.307087 0.141732 
vn -0.850394 0.307087 0.425197 
vn -0.677165 0.307087 0.669291 
vn -0.440945 0.307087 0.84252 
vn -0.15748 0.307087 0.937008 
vn 0.141732 0.307087 0.937008 
vn 0.425197 0.307087 0.850394 
vn 0.141732 0.307087 0.937008 
vn 0.669291 0.307087 0.677165 
vn 0.84252 0.307087 0.440945 
vn 0.937008 0.307087 0.15748 
vn 0.937008 0.307087 -0.141732 
vn 0.850394 0.307087 -0.425197 
vn 0.677165 0.307087 -0.669291 
vn 0.440945 0.307087 -0.84252 
vn 0.15748 0.307087 -0.937008 
vn -0.141732 0.307087 -0.937008 
vn -0.440945 0.0787402 -0.889764 
vn -0.149606 0.0787402 -0.984252 
vn -0.700787 0.0787402 -0.708661 
vn -0.88189 0.0787402 -0.464567 
vn -0.984252 0.0787402 -0.165354 
vn -0.984252 0.0787402 0.149606 
vn -0.889764 0.0787402 0.440945 
vn -0.708661 0.0787402 0.700787 
vn -0.464567 0.0787402 0.88189 
vn -0.165354 0.0787402 0.984252 
vn 0.149606 0.0787402 0.984252 
vn 0.440945 0.0787402 0.889764 
vn 0.149606 0.0787402 0.984252 
vn 0.700787 0.0787402 0.708661 
vn 0.88189 0.0787402 0.464567 
vn 0.984252 0.0787402 0.165354 
vn 0.984252 0.0787402 -0.149606 
vn 0.889764 0.0787402 -0.440945 
vn 0.708661 0.0787402 -0.700787 
vn 0.464567 0.0787402 -0.88189 
vn 0.165354 0.0787402 -0.984252 
vn -0.149606 0.0787402 -0.984252 
vn -0.440945 -0.0787402 -0.889764 
vn -0.141732 -0.0787402 -0.984252 
vn -0.700787 -0.0787402 -0.708661 
vn -0.88189 -0.0787402 -0.464567 
vn -0.984252 -0.0787402 -0.165354 
vn -0.984252 -0.0787402 0.141732 
vn -0.889764 -0.0787402 0.440945 
vn -0.708661 -0.0787402 0.700787 
vn -0.464567 -0.0787402 0.88189 
vn -0.165354 -0.0787402 0.984252 
vn 0.149606 -0.0787402 0.984252 
vn 0.440945 -0.0787402 0.889764 
vn 0.149606 -0.0787402 0.984252 
vn 0.700787 -0.0787402 0.708661 
vn 0.88189 -0.0787402 0.464567 
vn 0.984252 -0.0787402 0.165354 
vn 0.984252 -0.0787402 -0.149606 
vn 0.889764 -0.0787402 -0.440945 
vn 0.708661 -0.0787402 -0.700787 
vn 0.464567 -0.0787402 -0.88189 
vn 0.165354 -0.0787402 -0.984252 
vn -0.141732 -0.0787402 -0.984252 
vn -0.417323 -0.307087 -0.850394 
vn -0.133858 -0.307087 -0.944882 
vn -0.661417 -0.307087 -0.677165 
vn -0.84252 -0.307087 -0.440945 
vn -0.937008 -0.307087 -0.15748 
vn -0.944882 -0.307087 0.133858 
vn -0.850394 -0.307087 0.417323 
vn -0.677165 -0.307087 0.661417 
vn -0.440945 -0.307087 0.84252 
vn -0.15748 -0.307087 0.937008 
vn 0.133858 -0.307087 0.944882 
vn 0.425197 -0.307087 0.850394 
vn 0.133858 -0.307087 0.944882 
vn 0.661417 -0.307087 0.685039 
vn 0.84252 -0.307087 0.440945 
vn 0.937008 -0.307087 0.15748 
vn 0.944882 -0.307087 -0.133858 
vn 0.850394 -0.307087 -0.417323 
vn 0.677165 -0.307087 -0.661417 
vn 0.440945 -0.307087 -0.84252 
vn 0.15748 -0.307087 -0.937008 
vn -0.133858 -0.307087 -0.944882 
vn -0.354331 -0.590551 -0.724409 
vn -0.110236 -0.590551 -0.80315 
vn -0.559055 -0.590551 -0.582677 
vn -0.716535 -0.590551 -0.377953 
vn -0.795276 -0.590551 -0.141732 
vn -0.80315 -0.590551 0.110236 
vn -0.724409 -0.590551 0.354331 
vn -0.582677 -0.590551 0.559055 
vn -0.377953 -0.590551 0.716535 
vn -0.141732 -0.590551 0.795276 
vn 0.110236 -0.590551 0.80315 
vn 0.354331 -0.590551 0.724409 
vn 0.110236 -0.590551 0.80315 
vn 0.559055 -0.590551 0.582677 
vn 0.716535 -0.590551 0.377953 
vn 0.795276 -0.590551 0.141732 
vn 0.80315 -0.590551 -0.110236 
vn 0.724409 -0.590551 -0.354331 
vn 0.582677 -0.590551 -0.559055 
vn 0.377953 -0.590551 -0.716535 
vn 0.141732 -0.590551 -0.795276 
vn -0.110236 -0.590551 -0.80315 
vn -0.251969 -0.811024 -0.527559 
vn -0.0787402 -0.811024 -0.582677 
vn -0.409449 -0.811024 -0.425197 
vn -0.519685 -0.811024 -0.275591 
vn -0.574803 -0.811024 -0.102362 
vn -0.582677 -0.811024 0.0787402 
vn -0.527559 -0.811024 0.251969 
vn -0.425197 -0.811024 0.409449 
vn -0.275591 -0.811024 0.519685 
vn -0.102362 -0.811024 0.574803 
vn 0.0787402 -0.811024 0.582677 
vn 0.251969 -0.811024 0.527559 
vn 0.0787402 -0.811024 0.582677 
vn 0.409449 -0.811024 0.425197 
vn 0.519685 -0.811024 0.275591 
vn 0.574803 -0.811024 0.102362 
vn 0.582677 -0.811024 -0.0787402 
vn 0.527559 -0.811024 -0.251969 
vn 0.425197 -0.811024 -0.409449 
vn 0.275591 -0.811024 -0.519685 
vn 0.102362 -0.811024 -0.574803 
vn -0.0787402 -0.811024 -0.582677 
vn -0.133858 -0.952756 -0.283465 
vn -0.0393701 -0.952756 -0.307087 
vn -0.212598 -0.952756 -0.228346 
vn -0.267717 -0.952756 -0.149606 
vn -0.307087 -0.952756 -0.0629921 
vn -0.307087 -0.952756 0.0393701 
vn -0.283465 -0.952756 0.133858 
vn -0.228346 -0.952756 0.212598 
vn -0.149606 -0.952756 0.267717 
vn -0.0629921 -0.952756 0.307087 
vn 0.0393701 -0.952756 0.307087 
vn 0.133858 -0.952756 0.283465 
vn 0.0393701 -0.952756 0.307087 
vn 0.212598 -0.952756 0.228346 
vn 0.267717 -0.952756 0.149606 
vn 0.299213 -0.952756 0.0629921 
vn 0.307087 -0.952756 -0.0393701 
vn 0.283465 -0.952756 -0.133858 
vn 0.228346 -0.952756 -0.212598 
vn 0.149606 -0.952756 -0.267717 
vn 0.0629921 -0.952756 -0.299213 
vn -0.0393701 -0.952756 -0.307087 
vn -0.0393701 -0.992126 -0.0866142 
vn -0.00787402 -0.992126 -0.0944882 
vn -0.0629921 -0.992126 -0.0708661 
vn -0.0787402 -0.992126 -0.0472441 
vn -0.0944882 -0.992126 -0.023622 
vn -0.0944882 -0.992126 0.00787402 
vn -0.0866142 -0.992126 0.0393701 
vn -0.0708661 -0.992126 0.0629921 
vn -0.0472441 -0.992126 0.0787402 
vn -0.023622 -0.992126 0.0944882 
vn 0.00787402 -0.992126 0.0944882 
vn 0.0393701 -0.992126 0.0866142 
vn 0.00787402 -0.992126 0.0944882 
vn 0.0629921 -0.992126 0.0708661 
vn 0.0787402 -0.992126 0.0472441 
vn 0.0944882 -0.992126 0.023622 
vn 0.0944882 -0.992126 -0.00787402 
vn 0.0866142 -0.992126 -0.0393701 
vn 0.0708661 -0.992126 -0.0629921 
vn 0.0472441 -0.992126 -0.0787402 
vn 0.023622 -0.992126 -0.0944882 
vn -0.00787402 -0.992126 -0.0944882 
vn 0 -1 0 
vn 0 -1 0 

vt 0.678218 0.260611 
vt 0.587458 0.260611 
vt 0.591901 0.260611 
vt 0.604792 0.260611 
vt 0.624871 0.260611 
vt 0.650172 0.260611 
vt 0.678218 0.260611 
vt 0.706264 0.260611 
vt 0.731565 0.260611 
vt 0.751644 0.260611 
vt 0.764535 0.260611 
vt 0.768977 0.260611 
vt 0.0378195 0.865397 
vt 0.0378195 0.814306 
vt 0.0378195 0.816806 
vt 0.0378195 0.824063 
vt 0.0378195 0.835366 
vt 0.0378195 0.849609 
vt 0.0378195 0.865397 
vt 0.0378195 0.881185 
vt 0.0378195 0.895427 
vt 0.0378195 0.90673 
vt 0.0378195 0.913987 
vt 0.0378195 0.916488 
vt 0.563713 0.26547 
vt 0.55782 0.26547 
vt 0.580814 0.26547 
vt 0.60745 0.26547 
vt 0.641013 0.26547 
vt 0.678218 0.26547 
vt 0.715423 0.26547 
vt 0.748986 0.26547 
vt 0.775621 0.26547 
vt 0.792722 0.26547 
vt 0.798615 0.26547 
vt 0.0413755 0.800939 
vt 0.0413755 0.797621 
vt 0.0413755 0.810565 
vt 0.0413755 0.825559 
vt 0.0413755 0.844453 
vt 0.0413755 0.865397 
vt 0.0413755 0.88634 
vt 0.0413755 0.905234 
vt 0.0413755 0.920228 
vt 0.0413755 0.929855 
vt 0.0413755 0.933172 
vt 0.538285 0.279572 
vt 0.531083 0.279572 
vt 0.559183 0.279572 
vt 0.591734 0.279572 
vt 0.632751 0.279572 
vt 0.678218 0.279572 
vt 0.723685 0.279572 
vt 0.764701 0.279572 
vt 0.797252 0.279572 
vt 0.818151 0.279572 
vt 0.825352 0.279572 
vt 0.0516957 0.786624 
vt 0.0516957 0.78257 
vt 0.0516957 0.798389 
vt 0.0516957 0.816713 
vt 0.0516957 0.839802 
vt 0.0516957 0.865397 
vt 0.0516957 0.890991 
vt 0.0516957 0.914081 
vt 0.0516957 0.932405 
vt 0.0516957 0.944169 
vt 0.0516957 0.948223 
vt 0.518104 0.301537 
vt 0.509865 0.301537 
vt 0.542017 0.301537 
vt 0.579262 0.301537 
vt 0.626194 0.301537 
vt 0.678218 0.301537 
vt 0.730242 0.301537 
vt 0.777173 0.301537 
vt 0.814418 0.301537 
vt 0.838331 0.301537 
vt 0.846571 0.301537 
vt 0.0677696 0.775264 
vt 0.0677696 0.770626 
vt 0.0677696 0.788725 
vt 0.0677696 0.809692 
vt 0.0677696 0.836111 
vt 0.0677696 0.865397 
vt 0.0677696 0.894682 
vt 0.0677696 0.921102 
vt 0.0677696 0.942068 
vt 0.0677696 0.955529 
vt 0.0677696 0.960167 
vt 0.505148 0.329214 
vt 0.496242 0.329214 
vt 0.530996 0.329214 
vt 0.571255 0.329214 
vt 0.621984 0.329214 
vt 0.678218 0.329214 
vt 0.734452 0.329214 
vt 0.785181 0.329214 
vt 0.82544 0.329214 
vt 0.851287 0.329214 
vt 0.860194 0.329214 
vt 0.088024 0.767971 
vt 0.088024 0.762957 
vt 0.088024 0.782521 
vt 0.088024 0.805184 
vt 0.088024 0.833741 
vt 0.088024 0.865397 
vt 0.088024 0.897052 
vt 0.088024 0.925609 
vt 0.088024 0.948272 
vt 0.088024 0.962823 
vt 0.088024 0.967836 
vt 0.500684 0.359894 
vt 0.491547 0.359894 
vt 0.527198 0.359894 
vt 0.568496 0.359894 
vt 0.620533 0.359894 
vt 0.678218 0.359894 
vt 0.735902 0.359894 
vt 0.78794 0.359894 
vt 0.829237 0.359894 
vt 0.855752 0.359894 
vt 0.864888 0.359894 
vt 0.110476 0.765458 
vt 0.110476 0.760314 
vt 0.110476 0.780383 
vt 0.110476 0.803631 
vt 0.110476 0.832924 
vt 0.110476 0.865397 
vt 0.110476 0.897869 
vt 0.110476 0.927162 
vt 0.110476 0.95041 
vt 0.110476 0.965336 
vt 0.110476 0.970479 
vt 0.500684 0.547796 
vt 0.491547 0.547796 
vt 0.527198 0.547796 
vt 0.568496 0.547796 
vt 0.620533 0.547796 
vt 0.678218 0.547796 
vt 0.735902 0.547796 
vt 0.78794 0.547796 
vt 0.829237 0.547796 
vt 0.855752 0.547796 
vt 0.864888 0.547796 
vt 0.247984 0.765458 
vt 0.247984 0.760314 
vt 0.247984 0.780383 
vt 0.247984 0.803631 
vt 0.247984 0.832924 
vt 0.247984 0.865397 
vt 0.247984 0.897869 
vt 0.247984 0.927162 
vt 0.247984 0.95041 
vt 0.247984 0.965336 
vt 0.247984 0.970479 
vt 0.505148 0.578476 
vt 0.496241 0.578476 
vt 0.530996 0.578476 
vt 0.571255 0.578476 
vt 0.621984 0.578476 
vt 0.678218 0.578476 
vt 0.734452 0.578476 
vt 0.785181 0.578476 
vt 0.82544 0.578476 
vt 0.851287 0.578476 
vt 0.860194 0.578476 
vt 0.270436 0.767971 
vt 0.270436 0.762957 
vt 0.270436 0.782521 
vt 0.270436 0.805184 
vt 0.270436 0.833741 
vt 0.270436 0.865397 
vt 0.270436 0.897052 
vt 0.270436 0.925609 
vt 0.270436 0.948272 
vt 0.270436 0.962823 
vt 0.270436 0.967836 
vt 0.518104 0.606153 
vt 0.509865 0.606153 
vt 0.542017 0.606153 
vt 0.579262 0.606153 
vt 0.626194 0.606153 
vt 0.678218 0.606153 
vt 0.730242 0.606153 
vt 0.777173 0.606153 
vt 0.814418 0.606153 
vt 0.838331 0.606153 
vt 0.846571 0.606153 
vt 0.29069 0.775264 
vt 0.29069 0.770626 
vt 0.29069 0.788725 
vt 0.29069 0.809692 
vt 0.29069 0.836111 
vt 0.29069 0.865397 
vt 0.29069 0.894682 
vt 0.29069 0.921102 
vt 0.29069 0.942068 
vt 0.29069 0.955529 
vt 0.29069 0.960167 
vt 0.538285 0.628118 
vt 0.531083 0.628118 
vt 0.559183 0.628118 
vt 0.591734 0.628118 
vt 0.632751 0.628118 
vt 0.678218 0.628118 
vt 0.723685 0.628118 
vt 0.764701 0.628118 
vt 0.797252 0.628118 
vt 0.818151 0.628118 
vt 0.825352 0.628118 
vt 0.306764 0.786624 
vt 0.306764 0.78257 
vt 0.306764 0.798389 
vt 0.306764 0.816713 
vt 0.306764 0.839802 
vt 0.306764 0.865397 
vt 0.306764 0.890991 
vt 0.306764 0.914081 
vt 0.306764 0.932405 
vt 0.306764 0.944169 
vt 0.306764 0.948223 
vt 0.563713 0.64222 
vt 0.55782 0.64222 
vt 0.580814 0.64222 
vt 0.60745 0.64222 
vt 0.641013 0.64222 
vt 0.678218 0.64222 
vt 0.715423 0.64222 
vt 0.748986 0.64222 
vt 0.775621 0.64222 
vt 0.792722 0.64222 
vt 0.798615 0.64222 
vt 0.317085 0.800939 
vt 0.317085 0.797621 
vt 0.317085 0.810565 
vt 0.317085 0.825559 
vt 0.317085 0.844453 
vt 0.317085 0.865397 
vt 0.317085 0.88634 
vt 0.317085 0.905234 
vt 0.317085 0.920228 
vt 0.317085 0.929855 
vt 0.317085 0.933172 
vt 0.591901 0.64708 
vt 0.587458 0.64708 
vt 0.604792 0.64708 
vt 0.624871 0.64708 
vt 0.650172 0.64708 
vt 0.678218 0.64708 
vt 0.706264 0.64708 
vt 0.731565 0.64708 
vt 0.751644 0.64708 
vt 0.764535 0.64708 
vt 0.768977 0.64708 
vt 0.320641 0.816806 
vt 0.320641 0.814306 
vt 0.320641 0.824063 
vt 0.320641 0.835366 
vt 0.320641 0.849609 
vt 0.320641 0.865397 
vt 0.320641 0.881185 
vt 0.320641 0.895427 
vt 0.320641 0.90673 
vt 0.320641 0.913987 
vt 0.320641 0.916488 
vt 0.678218 0.64708 
vt 0.320641 0.865397 

usemtl Handle1Mtl

f 1/1/1 2/2/2 3/3/3 
f 1/1/1 3/3/3 4/4/4 
f 1/1/1 4/4/4 5/5/5 
f 1/1/1 5/5/5 6/6/6 
f 1/1/1 6/6/6 7/7/7 
f 1/1/1 7/7/7 8/8/8 
f 1/1/1 8/8/8 9/9/9 
f 1/1/1 9/9/9 10/10/10 
f 1/1/1 10/10/10 11/11/11 
f 1/1/1 11/11/11 12/12/12 
f 13/13/13 14/14/14 15/15/15 
f 13/13/13 15/15/15 16/16/16 
f 13/13/13 16/16/16 17/17/17 
f 13/13/13 17/17/17 18/18/18 
f 13/13/13 18/18/18 19/19/19 
f 13/13/13 19/19/19 20/20/20 
f 13/13/13 20/20/20 21/21/21 
f 13/13/13 21/21/21 22/22/22 
f 13/13/13 22/22/22 23/23/23 
f 13/13/13 23/23/23 24/24/24 
f 25/25/25 3/3/3 2/2/2 
f 2/2/2 26/26/26 25/25/25 
f 27/27/27 4/4/4 3/3/3 
f 3/3/3 25/25/25 27/27/27 
f 28/28/28 5/5/5 4/4/4 
f 4/4/4 27/27/27 28/28/28 
f 29/29/29 6/6/6 5/5/5 
f 5/5/5 28/28/28 29/29/29 
f 30/30/30 7/7/7 6/6/6 
f 6/6/6 29/29/29 30/30/30 
f 31/31/31 8/8/8 7/7/7 
f 7/7/7 30/30/30 31/31/31 
f 32/32/32 9/9/9 8/8/8 
f 8/8/8 31/31/31 32/32/32 
f 33/33/33 10/10/10 9/9/9 
f 9/9/9 32/32/32 33/33/33 
f 34/34/34 11/11/11 10/10/10 
f 10/10/10 33/33/33 34/34/34 
f 35/35/35 12/12/12 11/11/11 
f 11/11/11 34/34/34 35/35/35 
f 36/36/36 15/15/15 14/14/14 
f 14/14/14 37/37/37 36/36/36 
f 38/38/38 16/16/16 15/15/15 
f 15/15/15 36/36/36 38/38/38 
f 39/39/39 17/17/17 16/16/16 
f 16/16/16 38/38/38 39/39/39 
f 40/40/40 18/18/18 17/17/17 
f 17/17/17 39/39/39 40/40/40 
f 41/41/41 19/19/19 18/18/18 
f 18/18/18 40/40/40 41/41/41 
f 42/42/42 20/20/20 19/19/19 
f 19/19/19 41/41/41 42/42/42 
f 43/43/43 21/21/21 20/20/20 
f 20/20/20 42/42/42 43/43/43 
f 44/44/44 22/22/22 21/21/21 
f 21/21/21 43/43/43 44/44/44 
f 45/45/45 23/23/23 22/22/22 
f 22/22/22 44/44/44 45/45/45 
f 46/46/46 24/24/24 23/23/23 
f 23/23/23 45/45/45 46/46/46 
f 47/47/47 25/25/25 26/26/26 
f 26/26/26 48/48/48 47/47/47 
f 49/49/49 27/27/27 25/25/25 
f 25/25/25 47/47/47 49/49/49 
f 50/50/50 28/28/28 27/27/27 
f 27/27/27 49/49/49 50/50/50 
f 51/51/51 29/29/29 28/28/28 
f 28/28/28 50/50/50 51/51/51 
f 52/52/52 30/30/30 29/29/29 
f 29/29/29 51/51/51 52/52/52 
f 53/53/53 31/31/31 30/30/30 
f 30/30/30 52/52/52 53/53/53 
f 54/54/54 32/32/32 31/31/31 
f 31/31/31 53/53/53 54/54/54 
f 55/55/55 33/33/33 32/32/32 
f 32/32/32 54/54/54 55/55/55 
f 56/56/56 34/34/34 33/33/33 
f 33/33/33 55/55/55 56/56/56 
f 57/57/57 35/35/35 34/34/34 
f 34/34/34 56/56/56 57/57/57 
f 58/58/58 36/36/36 37/37/37 
f 37/37/37 59/59/59 58/58/58 
f 60/60/60 38/38/38 36/36/36 
f 36/36/36 58/58/58 60/60/60 
f 61/61/61 39/39/39 38/38/38 
f 38/38/38 60/60/60 61/61/61 
f 62/62/62 40/40/40 39/39/39 
f 39/39/39 61/61/61 62/62/62 
f 63/63/63 41/41/41 40/40/40 
f 40/40/40 62/62/62 63/63/63 
f 64/64/64 42/42/42 41/41/41 
f 41/41/41 63/63/63 64/64/64 
f 65/65/65 43/43/43 42/42/42 
f 42/42/42 64/64/64 65/65/65 
f 66/66/66 44/44/44 43/43/43 
f 43/43/43 65/65/65 66/66/66 
f 67/67/67 45/45/45 44/44/44 
f 44/44/44 66/66/66 67/67/67 
f 68/68/68 46/46/46 45/45/45 
f 45/45/45 67/67/67 68/68/68 
f 69/69/69 47/47/47 48/48/48 
f 48/48/48 70/70/70 69/69/69 
f 71/71/71 49/49/49 47/47/47 
f 47/47/47 69/69/69 71/71/71 
f 72/72/72 50/50/50 49/49/49 
f 49/49/49 71/71/71 72/72/72 
f 73/73/73 51/51/51 50/50/50 
f 50/50/50 72/72/72 73/73/73 
f 74/74/74 52/52/52 51/51/51 
f 51/51/51 73/73/73 74/74/74 
f 75/75/75 53/53/53 52/52/52 
f 52/52/52 74/74/74 75/75/75 
f 76/76/76 54/54/54 53/53/53 
f 53/53/53 75/75/75 76/76/76 
f 77/77/77 55/55/55 54/54/54 
f 54/54/54 76/76/76 77/77/77 
f 78/78/78 56/56/56 55/55/55 
f 55/55/55 77/77/77 78/78/78 
f 79/79/79 57/57/57 56/56/56 
f 56/56/56 78/78/78 79/79/79 
f 80/80/80 58/58/58 59/59/59 
f 59/59/59 81/81/81 80/80/80 
f 82/82/82 60/60/60 58/58/58 
f 58/58/58 80/80/80 82/82/82 
f 83/83/83 61/61/61 60/60/60 
f 60/60/60 82/82/82 83/83/83 
f 84/84/84 62/62/62 61/61/61 
f 61/61/61 83/83/83 84/84/84 
f 85/85/85 63/63/63 62/62/62 
f 62/62/62 84/84/84 85/85/85 
f 86/86/86 64/64/64 63/63/63 
f 63/63/63 85/85/85 86/86/86 
f 87/87/87 65/65/65 64/64/64 
f 64/64/64 86/86/86 87/87/87 
f 88/88/88 66/66/66 65/65/65 
f 65/65/65 87/87/87 88/88/88 
f 89/89/89 67/67/67 66/66/66 
f 66/66/66 88/88/88 89/89/89 
f 90/90/90 68/68/68 67/67/67 
f 67/67/67 89/89/89 90/90/90 
f 91/91/91 69/69/69 70/70/70 
f 70/70/70 92/92/92 91/91/91 
f 93/93/93 71/71/71 69/69/69 
f 69/69/69 91/91/91 93/93/93 
f 94/94/94 72/72/72 71/71/71 
f 71/71/71 93/93/93 94/94/94 
f 95/95/95 73/73/73 72/72/72 
f 72/72/72 94/94/94 95/95/95 
f 96/96/96 74/74/74 73/73/73 
f 73/73/73 95/95/95 96/96/96 
f 97/97/97 75/75/75 74/74/74 
f 74/74/74 96/96/96 97/97/97 
f 98/98/98 76/76/76 75/75/75 
f 75/75/75 97/97/97 98/98/98 
f 99/99/99 77/77/77 76/76/76 
f 76/76/76 98/98/98 99/99/99 
f 100/100/100 78/78/78 77/77/77 
f 77/77/77 99/99/99 100/100/100 
f 101/101/101 79/79/79 78/78/78 
f 78/78/78 100/100/100 101/101/101 
f 102/102/102 80/80/80 81/81/81 
f 81/81/81 103/103/103 102/102/102 
f 104/104/104 82/82/82 80/80/80 
f 80/80/80 102/102/102 104/104/104 
f 105/105/105 83/83/83 82/82/82 
f 82/82/82 104/104/104 105/105/105 
f 106/106/106 84/84/84 83/83/83 
f 83/83/83 105/105/105 106/106/106 
f 107/107/107 85/85/85 84/84/84 
f 84/84/84 106/106/106 107/107/107 
f 108/108/108 86/86/86 85/85/85 
f 85/85/85 107/107/107 108/108/108 
f 109/109/109 87/87/87 86/86/86 
f 86/86/86 108/108/108 109/109/109 
f 110/110/110 88/88/88 87/87/87 
f 87/87/87 109/109/109 110/110/110 
f 111/111/111 89/89/89 88/88/88 
f 88/88/88 110/110/110 111/111/111 
f 112/112/112 90/90/90 89/89/89 
f 89/89/89 111/111/111 112/112/112 
f 113/113/113 91/91/91 92/92/92 
f 92/92/92 114/114/114 113/113/113 
f 115/115/115 93/93/93 91/91/91 
f 91/91/91 113/113/113 115/115/115 
f 116/116/116 94/94/94 93/93/93 
f 93/93/93 115/115/115 116/116/116 
f 117/117/117 95/95/95 94/94/94 
f 94/94/94 116/116/116 117/117/117 
f 118/118/118 96/96/96 95/95/95 
f 95/95/95 117/117/117 118/118/118 
f 119/119/119 97/97/97 96/96/96 
f 96/96/96 118/118/118 119/119/119 
f 120/120/120 98/98/98 97/97/97 
f 97/97/97 119/119/119 120/120/120 
f 121/121/121 99/99/99 98/98/98 
f 98/98/98 120/120/120 121/121/121 
f 122/122/122 100/100/100 99/99/99 
f 99/99/99 121/121/121 122/122/122 
f 123/123/123 101/101/101 100/100/100 
f 100/100/100 122/122/122 123/123/123 
f 124/124/124 102/102/102 103/103/103 
f 103/103/103 125/125/125 124/124/124 
f 126/126/126 104/104/104 102/102/102 
f 102/102/102 124/124/124 126/126/126 
f 127/127/127 105/105/105 104/104/104 
f 104/104/104 126/126/126 127/127/127 
f 128/128/128 106/106/106 105/105/105 
f 105/105/105 127/127/127 128/128/128 
f 129/129/129 107/107/107 106/106/106 
f 106/106/106 128/128/128 129/129/129 
f 130/130/130 108/108/108 107/107/107 
f 107/107/107 129/129/129 130/130/130 
f 131/131/131 109/109/109 108/108/108 
f 108/108/108 130/130/130 131/131/131 
f 132/132/132 110/110/110 109/109/109 
f 109/109/109 131/131/131 132/132/132 
f 133/133/133 111/111/111 110/110/110 
f 110/110/110 132/132/132 133/133/133 
f 134/134/134 112/112/112 111/111/111 
f 111/111/111 133/133/133 134/134/134 
f 135/135/135 113/113/113 114/114/114 
f 114/114/114 136/136/136 135/135/135 
f 137/137/137 115/115/115 113/113/113 
f 113/113/113 135/135/135 137/137/137 
f 138/138/138 116/116/116 115/115/115 
f 115/115/115 137/137/137 138/138/138 
f 139/139/139 117/117/117 116/116/116 
f 116/116/116 138/138/138 139/139/139 
f 140/140/140 118/118/118 117/117/117 
f 117/117/117 139/139/139 140/140/140 
f 141/141/141 119/119/119 118/118/118 
f 118/118/118 140/140/140 141/141/141 
f 142/142/142 120/120/120 119/119/119 
f 119/119/119 141/141/141 142/142/142 
f 143/143/143 121/121/121 120/120/120 
f 120/120/120 142/142/142 143/143/143 
f 144/144/144 122/122/122 121/121/121 
f 121/121/121 143/143/143 144/144/144 
f 145/145/145 123/123/123 122/122/122 
f 122/122/122 144/144/144 145/145/145 
f 146/146/146 124/124/124 125/125/125 
f 125/125/125 147/147/147 146/146/146 
f 148/148/148 126/126/126 124/124/124 
f 124/124/124 146/146/146 148/148/148 
f 149/149/149 127/127/127 126/126/126 
f 126/126/126 148/148/148 149/149/149 
f 150/150/150 128/128/128 127/127/127 
f 127/127/127 149/149/149 150/150/150 
f 151/151/151 129/129/129 128/128/128 
f 128/128/128 150/150/150 151/151/151 
f 152/152/152 130/130/130 129/129/129 
f 129/129/129 151/151/151 152/152/152 
f 153/153/153 131/131/131 130/130/130 
f 130/130/130 152/152/152 153/153/153 
f 154/154/154 132/132/132 131/131/131 
f 131/131/131 153/153/153 154/154/154 
f 155/155/155 133/133/133 132/132/132 
f 132/132/132 154/154/154 155/155/155 
f 156/156/156 134/134/134 133/133/133 
f 133/133/133 155/155/155 156/156/156 
f 157/157/157 135/135/135 136/136/136 
f 136/136/136 158/158/158 157/157/157 
f 159/159/159 137/137/137 135/135/135 
f 135/135/135 157/157/157 159/159/159 
f 160/160/160 138/138/138 137/137/137 
f 137/137/137 159/159/159 160/160/160 
f 161/161/161 139/139/139 138/138/138 
f 138/138/138 160/160/160 161/161/161 
f 162/162/162 140/140/140 139/139/139 
f 139/139/139 161/161/161 162/162/162 
f 163/163/163 141/141/141 140/140/140 
f 140/140/140 162/162/162 163/163/163 
f 164/164/164 142/142/142 141/141/141 
f 141/141/141 163/163/163 164/164/164 
f 165/165/165 143/143/143 142/142/142 
f 142/142/142 164/164/164 165/165/165 
f 166/166/166 144/144/144 143/143/143 
f 143/143/143 165/165/165 166/166/166 
f 167/167/167 145/145/145 144/144/144 
f 144/144/144 166/166/166 167/167/167 
f 168/168/168 146/146/146 147/147/147 
f 147/147/147 169/169/169 168/168/168 
f 170/170/170 148/148/148 146/146/146 
f 146/146/146 168/168/168 170/170/170 
f 171/171/171 149/149/149 148/148/148 
f 148/148/148 170/170/170 171/171/171 
f 172/172/172 150/150/150 149/149/149 
f 149/149/149 171/171/171 172/172/172 
f 173/173/173 151/151/151 150/150/150 
f 150/150/150 172/172/172 173/173/173 
f 174/174/174 152/152/152 151/151/151 
f 151/151/151 173/173/173 174/174/174 
f 175/175/175 153/153/153 152/152/152 
f 152/152/152 174/174/174 175/175/175 
f 176/176/176 154/154/154 153/153/153 
f 153/153/153 175/175/175 176/176/176 
f 177/177/177 155/155/155 154/154/154 
f 154/154/154 176/176/176 177/177/177 
f 178/178/178 156/156/156 155/155/155 
f 155/155/155 177/177/177 178/178/178 
f 179/179/179 157/157/157 158/158/158 
f 158/158/158 180/180/180 179/179/179 
f 181/181/181 159/159/159 157/157/157 
f 157/157/157 179/179/179 181/181/181 
f 182/182/182 160/160/160 159/159/159 
f 159/159/159 181/181/181 182/182/182 
f 183/183/183 161/161/161 160/160/160 
f 160/160/160 182/182/182 183/183/183 
f 184/184/184 162/162/162 161/161/161 
f 161/161/161 183/183/183 184/184/184 
f 185/185/185 163/163/163 162/162/162 
f 162/162/162 184/184/184 185/185/185 
f 186/186/186 164/164/164 163/163/163 
f 163/163/163 185/185/185 186/186/186 
f 187/187/187 165/165/165 164/164/164 
f 164/164/164 186/186/186 187/187/187 
f 188/188/188 166/166/166 165/165/165 
f 165/165/165 187/187/187 188/188/188 
f 189/189/189 167/167/167 166/166/166 
f 166/166/166 188/188/188 189/189/189 
f 190/190/190 168/168/168 169/169/169 
f 169/169/169 191/191/191 190/190/190 
f 192/192/192 170/170/170 168/168/168 
f 168/168/168 190/190/190 192/192/192 
f 193/193/193 171/171/171 170/170/170 
f 170/170/170 192/192/192 193/193/193 
f 194/194/194 172/172/172 171/171/171 
f 171/171/171 193/193/193 194/194/194 
f 195/195/195 173/173/173 172/172/172 
f 172/172/172 194/194/194 195/195/195 
f 196/196/196 174/174/174 173/173/173 
f 173/173/173 195/195/195 196/196/196 
f 197/197/197 175/175/175 174/174/174 
f 174/174/174 196/196/196 197/197/197 
f 198/198/198 176/176/176 175/175/175 
f 175/175/175 197/197/197 198/198/198 
f 199/199/199 177/177/177 176/176/176 
f 176/176/176 198/198/198 199/199/199 
f 200/200/200 178/178/178 177/177/177 
f 177/177/177 199/199/199 200/200/200 
f 201/201/201 179/179/179 180/180/180 
f 180/180/180 202/202/202 201/201/201 
f 203/203/203 181/181/181 179/179/179 
f 179/179/179 201/201/201 203/203/203 
f 204/204/204 182/182/182 181/181/181 
f 181/181/181 203/203/203 204/204/204 
f 205/205/205 183/183/183 182/182/182 
f 182/182/182 204/204/204 205/205/205 
f 206/206/206 184/184/184 183/183/183 
f 183/183/183 205/205/205 206/206/206 
f 207/207/207 185/185/185 184/184/184 
f 184/184/184 206/206/206 207/207/207 
f 208/208/208 186/186/186 185/185/185 
f 185/185/185 207/207/207 208/208/208 
f 209/209/209 187/187/187 186/186/186 
f 186/186/186 208/208/208 209/209/209 
f 210/210/210 188/188/188 187/187/187 
f 187/187/187 209/209/209 210/210/210 
f 211/211/211 189/189/189 188/188/188 
f 188/188/188 210/210/210 211/211/211 
f 212/212/212 190/190/190 191/191/191 
f 191/191/191 213/213/213 212/212/212 
f 214/214/214 192/192/192 190/190/190 
f 190/190/190 212/212/212 214/214/214 
f 215/215/215 193/193/193 192/192/192 
f 192/192/192 214/214/214 215/215/215 
f 216/216/216 194/194/194 193/193/193 
f 193/193/193 215/215/215 216/216/216 
f 217/217/217 195/195/195 194/194/194 
f 194/194/194 216/216/216 217/217/217 
f 218/218/218 196/196/196 195/195/195 
f 195/195/195 217/217/217 218/218/218 
f 219/219/219 197/197/197 196/196/196 
f 196/196/196 218/218/218 219/219/219 
f 220/220/220 198/198/198 197/197/197 
f 197/197/197 219/219/219 220/220/220 
f 221/221/221 199/199/199 198/198/198 
f 198/198/198 220/220/220 221/221/221 
f 222/222/222 200/200/200 199/199/199 
f 199/199/199 221/221/221 222/222/222 
f 223/223/223 201/201/201 202/202/202 
f 202/202/202 224/224/224 223/223/223 
f 225/225/225 203/203/203 201/201/201 
f 201/201/201 223/223/223 225/225/225 
f 226/226/226 204/204/204 203/203/203 
f 203/203/203 225/225/225 226/226/226 
f 227/227/227 205/205/205 204/204/204 
f 204/204/204 226/226/226 227/227/227 
f 228/228/228 206/206/206 205/205/205 
f 205/205/205 227/227/227 228/228/228 
f 229/229/229 207/207/207 206/206/206 
f 206/206/206 228/228/228 229/229/229 
f 230/230/230 208/208/208 207/207/207 
f 207/207/207 229/229/229 230/230/230 
f 231/231/231 209/209/209 208/208/208 
f 208/208/208 230/230/230 231/231/231 
f 232/232/232 210/210/210 209/209/209 
f 209/209/209 231/231/231 232/232/232 
f 233/233/233 211/211/211 210/210/210 
f 210/210/210 232/232/232 233/233/233 
f 234/234/234 212/212/212 213/213/213 
f 213/213/213 235/235/235 234/234/234 
f 236/236/236 214/214/214 212/212/212 
f 212/212/212 234/234/234 236/236/236 
f 237/237/237 215/215/215 214/214/214 
f 214/214/214 236/236/236 237/237/237 
f 238/238/238 216/216/216 215/215/215 
f 215/215/215 237/237/237 238/238/238 
f 239/239/239 217/217/217 216/216/216 
f 216/216/216 238/238/238 239/239/239 
f 240/240/240 218/218/218 217/217/217 
f 217/217/217 239/239/239 240/240/240 
f 241/241/241 219/219/219 218/218/218 
f 218/218/218 240/240/240 241/241/241 
f 242/242/242 220/220/220 219/219/219 
f 219/219/219 241/241/241 242/242/242 
f 243/243/243 221/221/221 220/220/220 
f 220/220/220 242/242/242 243/243/243 
f 244/244/244 222/222/222 221/221/221 
f 221/221/221 243/243/243 244/244/244 
f 245/245/245 223/223/223 224/224/224 
f 224/224/224 246/246/246 245/245/245 
f 247/247/247 225/225/225 223/223/223 
f 223/223/223 245/245/245 247/247/247 
f 248/248/248 226/226/226 225/225/225 
f 225/225/225 247/247/247 248/248/248 
f 249/249/249 227/227/227 226/226/226 
f 226/226/226 248/248/248 249/249/249 
f 250/250/250 228/228/228 227/227/227 
f 227/227/227 249/249/249 250/250/250 
f 251/251/251 229/229/229 228/228/228 
f 228/228/228 250/250/250 251/251/251 
f 252/252/252 230/230/230 229/229/229 
f 229/229/229 251/251/251 252/252/252 
f 253/253/253 231/231/231 230/230/230 
f 230/230/230 252/252/252 253/253/253 
f 254/254/254 232/232/232 231/231/231 
f 231/231/231 253/253/253 254/254/254 
f 255/255/255 233/233/233 232/232/232 
f 232/232/232 254/254/254 255/255/255 
f 256/256/256 234/234/234 235/235/235 
f 235/235/235 257/257/257 256/256/256 
f 258/258/258 236/236/236 234/234/234 
f 234/234/234 256/256/256 258/258/258 
f 259/259/259 237/237/237 236/236/236 
f 236/236/236 258/258/258 259/259/259 
f 260/260/260 238/238/238 237/237/237 
f 237/237/237 259/259/259 260/260/260 
f 261/261/261 239/239/239 238/238/238 
f 238/238/238 260/260/260 261/261/261 
f 262/262/262 240/240/240 239/239/239 
f 239/239/239 261/261/261 262/262/262 
f 263/263/263 241/241/241 240/240/240 
f 240/240/240 262/262/262 263/263/263 
f 264/264/264 242/242/242 241/241/241 
f 241/241/241 263/263/263 264/264/264 
f 265/265/265 243/243/243 242/242/242 
f 242/242/242 264/264/264 265/265/265 
f 266/266/266 244/244/244 243/243/243 
f 243/243/243 265/265/265 266/266/266 
f 246/246/246 267/267/267 245/245/245 
f 245/245/245 267/267/267 247/247/247 
f 247/247/247 267/267/267 248/248/248 
f 248/248/248 267/267/267 249/249/249 
f 249/249/249 267/267/267 250/250/250 
f 250/250/250 267/267/267 251/251/251 
f 251/251/251 267/267/267 252/252/252 
f 252/252/252 267/267/267 253/253/253 
f 253/253/253 267/267/267 254/254/254 
f 254/254/254 267/267/267 255/255/255 
f 257/257/257 268/268/268 256/256/256 
f 256/256/256 268/268/268 258/258/258 
f 258/258/258 268/268/268 259/259/259 
f 259/259/259 268/268/268 260/260/260 
f 260/260/260 268/268/268 261/261/261 
f 261/261/261 268/268/268 262/262/262 
f 262/262/262 268/268/268 263/263/263 
f 263/263/263 268/268/268 264/264/264 
f 264/264/264 268/268/268 265/265/265 
f 265/265/265 268/268/268 266/266/266 

